HIERARCHY
ROOT root
{
	OFFSET 0.000000 0.000000 0.000000
	CHANNELS 6 Xposition Yposition Zposition Zrotation Yrotation Xrotation
	JOINT lhip
	{
		OFFSET 0.058581 -0.082280 -0.017664
		CHANNELS 3 Zrotation Yrotation Xrotation
		JOINT lknee
		{
			OFFSET 0.043451 -0.386469 0.008037
			CHANNELS 3 Zrotation Yrotation Xrotation
			JOINT lankle
			{
				OFFSET -0.014790 -0.426874 -0.037428
				CHANNELS 3 Zrotation Yrotation Xrotation
				JOINT ltoe
				{
					OFFSET 0.041054 -0.060286 0.122042
					CHANNELS 3 Zrotation Yrotation Xrotation
					End Site
					{
						OFFSET 0.000000 0.000000 0.000000
					}
				}
			}
		}
	}
	JOINT rhip
	{
		OFFSET -0.060310 -0.090513 -0.013543
		CHANNELS 3 Zrotation Yrotation Xrotation
		JOINT rknee
		{
			OFFSET -0.043257 -0.383688 -0.004843
			CHANNELS 3 Zrotation Yrotation Xrotation
			JOINT rankle
			{
				OFFSET 0.019056 -0.420046 -0.034562
				CHANNELS 3 Zrotation Yrotation Xrotation
				JOINT rtoe
				{
					OFFSET -0.034840 -0.062106 0.130323
					CHANNELS 3 Zrotation Yrotation Xrotation
					End Site
					{
						OFFSET 0.000000 0.000000 0.000000
					}
				}
			}
		}
	}
	JOINT lowerback
	{
		OFFSET 0.004439 0.124404 -0.038385
		CHANNELS 3 Zrotation Yrotation Xrotation
		JOINT upperback
		{
			OFFSET 0.004488 0.137956 0.026820
			CHANNELS 3 Zrotation Yrotation Xrotation
			JOINT chest
			{
				OFFSET -0.002265 0.056032 0.002855
				CHANNELS 3 Zrotation Yrotation Xrotation
				JOINT lowerneck
				{
					OFFSET -0.013390 0.211636 -0.033468
					CHANNELS 3 Zrotation Yrotation Xrotation
					JOINT upperneck
					{
						OFFSET 0.010113 0.088937 0.050410
						CHANNELS 3 Zrotation Yrotation Xrotation
						End Site
						{
							OFFSET 0.000000 0.000000 0.000000
						}
					}
				}
				JOINT lclavicle
				{
					OFFSET 0.071702 0.114000 -0.018898
					CHANNELS 3 Zrotation Yrotation Xrotation
					JOINT lshoulder
					{
						OFFSET 0.122921 0.045205 -0.019046
						CHANNELS 3 Zrotation Yrotation Xrotation
						JOINT lelbow
						{
							OFFSET 0.255332 -0.015649 -0.022946
							CHANNELS 3 Zrotation Yrotation Xrotation
							JOINT lwrist
							{
								OFFSET 0.265709 0.012698 -0.007375
								CHANNELS 3 Zrotation Yrotation Xrotation
								End Site
								{
									OFFSET 0.000000 0.000000 0.000000
								}
							}
						}
					}
				}
				JOINT rclavicle
				{
					OFFSET -0.082954 0.112472 -0.023707
					CHANNELS 3 Zrotation Yrotation Xrotation
					JOINT rshoulder
					{
						OFFSET -0.113228 0.046853 -0.008472
						CHANNELS 3 Zrotation Yrotation Xrotation
						JOINT relbow
						{
							OFFSET -0.260127 -0.014369 -0.031269
							CHANNELS 3 Zrotation Yrotation Xrotation
							JOINT rwrist
							{
								OFFSET -0.269108 0.006794 -0.006027
								CHANNELS 3 Zrotation Yrotation Xrotation
								End Site
								{
									OFFSET 0.000000 0.000000 0.000000
								}
							}
						}
					}
				}
			}
		}
	}
}
MOTION
Frames: 7
Frame Time: 0.033333
0.363392 0.194721 0.947805 87.018098 -1.180300 89.828423 7.469411 2.236030 -14.706980 -7.325258 2.737332 34.784657 3.860474 13.886659 -16.444568 0.000000 -0.000000 0.000000 -8.966714 -0.749085 -19.742279 3.505419 2.919333 40.283665 6.657269 -11.908386 -20.618538 0.000000 -0.000000 0.000000 -5.388168 1.609921 17.563332 5.189075 -0.872268 8.376370 2.376462 -1.371863 1.512199 1.636123 9.572606 -0.852568 0.196232 10.932823 -0.867656 -10.094403 2.681846 9.049861 -26.774129 -2.684207 21.936561 -139.069984 -63.039229 146.736875 0.921559 -34.960168 -62.640721 8.270579 0.762744 6.719063 33.411130 -2.694597 35.058641 -163.959741 68.218172 -146.582458 39.058313 34.202048 -48.211132 
0.364085 0.194581 0.947195 88.158351 -1.111942 89.775779 7.652965 2.041133 -14.962029 -7.317234 2.578103 35.048565 3.889728 13.201031 -16.283895 0.000000 -0.000000 0.000000 -8.893828 -1.231005 -19.336410 3.211300 2.269802 40.385005 6.312113 -11.851335 -20.996370 0.000000 -0.000000 0.000000 -5.509532 2.047806 16.755717 5.500707 -1.264543 9.624255 2.372170 -1.486134 1.151469 1.906567 10.032555 -0.125269 -0.006015 10.481501 -0.602291 -9.559476 4.077474 9.631239 -28.580383 -1.710463 21.069457 -140.015672 -62.821383 149.023937 0.709978 -34.629385 -62.518924 8.341207 -0.952185 6.658905 36.042228 -4.498685 34.276514 -162.183735 67.444576 -143.414223 38.574460 33.708072 -49.006024 
0.364038 0.194641 0.946371 89.082524 -1.073040 89.912038 7.813922 1.805408 -15.466870 -7.534779 2.413653 35.408589 4.023753 12.757577 -16.174655 0.000000 -0.000000 0.000000 -8.977092 -1.308228 -19.222456 3.037335 1.483535 40.475514 6.149581 -11.787725 -21.405835 0.000000 -0.000000 0.000000 -5.597714 2.073144 16.403803 5.670265 -1.202633 9.070054 2.103357 -1.521071 2.061372 2.580873 10.787625 0.407533 -0.177747 9.541833 0.878872 -9.231342 6.939082 9.502656 -30.652544 -0.689614 20.584887 -140.988459 -62.556903 151.645530 0.834417 -34.174303 -62.884553 9.082959 -3.987466 5.835574 38.782983 -6.400609 33.940732 -159.989924 66.563225 -139.783073 37.916414 33.417436 -49.636460 
0.364675 0.193515 0.945574 90.077417 -1.011958 90.337888 8.065283 1.396515 -16.244851 -7.623433 2.502125 35.728288 4.164501 12.012807 -15.868640 0.000000 -0.000000 0.000000 -9.036355 -1.391400 -19.245119 2.680135 0.387555 40.385356 5.908112 -11.374492 -21.803415 0.000000 -0.000000 0.000000 -5.869202 2.291126 15.448342 6.164073 -1.327872 8.695313 1.758788 -1.383686 3.011221 3.638623 11.783599 1.626726 -0.597158 7.823467 2.474415 -8.697628 10.615004 9.286401 -34.086109 0.113649 20.127414 -142.279772 -62.910874 154.976245 0.971740 -33.473135 -62.757935 10.213968 -8.191495 4.479755 42.282584 -8.432360 33.218749 -156.170322 65.360125 -133.464835 38.283802 32.668578 -49.310509 
0.364422 0.192495 0.945853 90.886193 -1.032262 90.992382 8.053840 0.837905 -17.261717 -7.501216 2.655158 36.047280 4.192745 11.376346 -15.429478 0.000000 -0.000000 0.000000 -9.211923 -1.233592 -19.590314 2.282400 -0.737252 40.284228 6.064223 -10.905537 -21.882906 0.000000 -0.000000 0.000000 -6.035743 2.331698 15.517884 6.306546 -0.862499 6.706792 1.460060 -1.749679 4.731520 4.613835 12.668312 2.618180 -1.230002 6.492703 3.414966 -8.073912 16.715900 7.129129 -38.561613 0.632177 20.274678 -142.565801 -62.708042 158.066374 0.970620 -32.299798 -62.617249 11.416984 -13.869840 1.388553 46.802946 -10.020940 33.463515 -152.320305 63.737044 -127.636654 37.532323 31.148037 -50.774173 
0.364025 0.190613 0.946170 91.606101 -1.086871 91.770035 8.119146 0.449689 -18.232372 -7.377105 3.113210 36.083156 4.231075 10.449582 -15.058193 0.000000 -0.000000 0.000000 -9.322979 -1.255715 -20.089770 1.625963 -1.849278 40.192672 6.212130 -10.056278 -21.747410 0.000000 -0.000000 0.000000 -6.421625 2.296899 14.925687 6.513302 -0.442602 4.998723 1.065626 -1.852052 7.194368 5.710248 13.403175 5.046447 -2.006114 5.335800 1.877656 -8.077659 23.519254 3.821786 -42.342198 0.589447 21.258801 -142.428454 -62.051543 159.878084 -0.012071 -31.140905 -62.341481 13.289670 -20.306009 -2.872034 51.244714 -10.959037 34.052364 -150.699757 62.367834 -124.743020 37.582880 29.484802 -50.517623 
0.363495 0.188459 0.946702 92.148321 -1.128501 92.378734 8.002673 0.188837 -19.087745 -6.974533 3.489798 36.331643 4.260787 9.593219 -14.783876 0.000000 -0.000000 0.000000 -9.399351 -1.175112 -20.346839 1.052810 -2.778068 39.921524 6.431505 -9.233333 -21.605654 0.000000 -0.000000 0.000000 -6.841294 2.237624 14.317278 6.608361 0.079159 3.878041 0.705671 -1.718516 9.640126 6.994658 13.916880 7.838783 -2.902269 4.664390 -1.325348 -9.552298 29.944050 -0.869684 -44.401196 -0.747959 22.852337 -141.972748 -61.503282 160.751326 -1.296211 -30.494761 -61.992304 15.848757 -26.254215 -7.421864 53.632851 -10.518478 35.583637 -150.155530 61.427967 -122.776341 37.973203 28.483905 -50.073380 
